# xmcd CD database file
#
# Track frame offsets:
#	187
#	23007
#	49117
#	71925
#
# Disc length: 1306 seconds
#
# Revision: 2
# Processed by: cddbd v1.5PL3 Copyright (c) Steve Scherf et al.
# Submitted via: CDex 1.50beta10
#
DISCID=31051804
DTITLE=Chisato Moritaka - Ichido Asobi-Ni Kiteyo
DYEAR=1999
DGENRE=Pop
TTITLE0=Ichido Asobi-Ni Kiteyo '99
TTITLE1=Every Day
TTITLE2=Ichido Asobi-Ni Kiteyo '99 (Original Karaoke)
TTITLE3=Every Day (Original Karaoke)
EXTD=YEAR: 1999
EXTT0=
EXTT1=
EXTT2=
EXTT3=
PLAYORDER=
